<?xml version="1.0" standalone="no"?>
<!DOCTYPE svg PUBLIC "-//W3C//DTD SVG 20010904//EN"
 "http://www.w3.org/TR/2001/REC-SVG-20010904/DTD/svg10.dtd">
<svg version="1.0" xmlns="http://www.w3.org/2000/svg"
 width="520.000000pt" height="520.000000pt" viewBox="0 0 520.000000 520.000000"
 preserveAspectRatio="xMidYMid meet">
<metadata>
Created by potrace 1.11, written by Peter Selinger 2001-2013
</metadata>
<g transform="translate(0.000000,520.000000) scale(0.100000,-0.100000)"
fill="#000000" stroke="none">
<path d="M0 2600 l0 -2600 2600 0 2600 0 0 2600 0 2600 -2600 0 -2600 0 0
-2600z m1950 1600 c108 -13 205 -35 276 -61 49 -19 55 -24 50 -44 -3 -13 -27
-131 -52 -262 -25 -131 -46 -239 -47 -240 -1 0 -34 10 -74 23 -100 33 -211 47
-328 41 -315 -18 -532 -198 -639 -530 -56 -172 -81 -401 -73 -652 13 -372 94
-637 246 -798 73 -77 125 -111 212 -138 60 -19 180 -25 227 -13 l22 6 0 384 0
384 -145 0 -145 0 0 250 0 250 425 0 425 0 0 -844 0 -844 -28 -11 c-111 -44
-367 -89 -552 -98 -247 -11 -466 28 -645 116 -367 178 -586 541 -660 1096 -30
222 -21 584 20 808 105 567 415 964 873 1117 186 62 412 84 612 60z m1870 -35
c211 -38 369 -114 490 -235 130 -129 188 -272 197 -486 7 -158 -11 -256 -72
-379 -71 -146 -179 -256 -317 -326 -32 -16 -58 -33 -58 -38 0 -5 28 -19 63
-30 186 -62 363 -231 435 -416 42 -107 54 -196 49 -353 -5 -163 -20 -234 -72
-349 -108 -236 -315 -402 -595 -477 -188 -50 -299 -61 -620 -61 -258 1 -506
15 -532 32 -5 2 -8 697 -8 1543 l0 1538 51 11 c57 13 274 39 364 45 149 9 532
-2 625 -19z"/>
<path d="M3420 3721 l-25 -7 -3 -417 -2 -417 74 0 c150 0 239 34 324 124 89
94 130 220 119 366 -19 242 -141 361 -369 359 -51 -1 -104 -4 -118 -8z"/>
<path d="M3390 1961 l0 -468 31 -7 c80 -16 207 -2 301 34 67 25 156 101 193
165 14 23 34 77 45 120 49 192 3 382 -121 500 -93 89 -198 125 -366 125 l-83
0 0 -469z"/>
</g>
</svg>
